<mxfile host="Electron" modified="2024-05-16T11:56:51.929Z" agent="Mozilla/5.0 (Windows NT 10.0; Win64; x64) AppleWebKit/537.36 (KHTML, like Gecko) draw.io/22.1.2 Chrome/114.0.5735.289 Electron/25.9.4 Safari/537.36" etag="vZ8sCySbRsEssjsAfIrn" version="22.1.2" type="device">
  <diagram name="Страница — 1" id="aJ3g1zBCtN5Y27-qvBMy">
    <mxGraphModel dx="2590" dy="1223" grid="1" gridSize="10" guides="1" tooltips="1" connect="1" arrows="1" fold="1" page="1" pageScale="1" pageWidth="827" pageHeight="1169" math="0" shadow="0">
      <root>
        <mxCell id="0" />
        <mxCell id="1" parent="0" />
        <mxCell id="p8BGuA-l2qhjcE9aHadG-1" value="Vector" style="swimlane;fontStyle=1;align=center;verticalAlign=top;childLayout=stackLayout;horizontal=1;startSize=26;horizontalStack=0;resizeParent=1;resizeParentMax=0;resizeLast=0;collapsible=1;marginBottom=0;whiteSpace=wrap;html=1;" parent="1" vertex="1">
          <mxGeometry x="540" y="298" width="246" height="294" as="geometry" />
        </mxCell>
        <mxCell id="p8BGuA-l2qhjcE9aHadG-2" value="- data: Object**" style="text;strokeColor=none;fillColor=none;align=left;verticalAlign=top;spacingLeft=4;spacingRight=4;overflow=hidden;rotatable=0;points=[[0,0.5],[1,0.5]];portConstraint=eastwest;whiteSpace=wrap;html=1;" parent="p8BGuA-l2qhjcE9aHadG-1" vertex="1">
          <mxGeometry y="26" width="246" height="26" as="geometry" />
        </mxCell>
        <mxCell id="p8BGuA-l2qhjcE9aHadG-5" value="- max_size: int" style="text;strokeColor=none;fillColor=none;align=left;verticalAlign=top;spacingLeft=4;spacingRight=4;overflow=hidden;rotatable=0;points=[[0,0.5],[1,0.5]];portConstraint=eastwest;whiteSpace=wrap;html=1;" parent="p8BGuA-l2qhjcE9aHadG-1" vertex="1">
          <mxGeometry y="52" width="246" height="26" as="geometry" />
        </mxCell>
        <mxCell id="p8BGuA-l2qhjcE9aHadG-6" value="- len: int" style="text;strokeColor=none;fillColor=none;align=left;verticalAlign=top;spacingLeft=4;spacingRight=4;overflow=hidden;rotatable=0;points=[[0,0.5],[1,0.5]];portConstraint=eastwest;whiteSpace=wrap;html=1;" parent="p8BGuA-l2qhjcE9aHadG-1" vertex="1">
          <mxGeometry y="78" width="246" height="26" as="geometry" />
        </mxCell>
        <mxCell id="p8BGuA-l2qhjcE9aHadG-3" value="" style="line;strokeWidth=1;fillColor=none;align=left;verticalAlign=middle;spacingTop=-1;spacingLeft=3;spacingRight=3;rotatable=0;labelPosition=right;points=[];portConstraint=eastwest;strokeColor=inherit;" parent="p8BGuA-l2qhjcE9aHadG-1" vertex="1">
          <mxGeometry y="104" width="246" height="8" as="geometry" />
        </mxCell>
        <mxCell id="p8BGuA-l2qhjcE9aHadG-4" value="+ Vector()" style="text;strokeColor=none;fillColor=none;align=left;verticalAlign=top;spacingLeft=4;spacingRight=4;overflow=hidden;rotatable=0;points=[[0,0.5],[1,0.5]];portConstraint=eastwest;whiteSpace=wrap;html=1;" parent="p8BGuA-l2qhjcE9aHadG-1" vertex="1">
          <mxGeometry y="112" width="246" height="26" as="geometry" />
        </mxCell>
        <mxCell id="p8BGuA-l2qhjcE9aHadG-7" value="+ Vector(int len)" style="text;strokeColor=none;fillColor=none;align=left;verticalAlign=top;spacingLeft=4;spacingRight=4;overflow=hidden;rotatable=0;points=[[0,0.5],[1,0.5]];portConstraint=eastwest;whiteSpace=wrap;html=1;" parent="p8BGuA-l2qhjcE9aHadG-1" vertex="1">
          <mxGeometry y="138" width="246" height="26" as="geometry" />
        </mxCell>
        <mxCell id="p8BGuA-l2qhjcE9aHadG-8" value="+ ~Vector()" style="text;strokeColor=none;fillColor=none;align=left;verticalAlign=top;spacingLeft=4;spacingRight=4;overflow=hidden;rotatable=0;points=[[0,0.5],[1,0.5]];portConstraint=eastwest;whiteSpace=wrap;html=1;" parent="p8BGuA-l2qhjcE9aHadG-1" vertex="1">
          <mxGeometry y="164" width="246" height="26" as="geometry" />
        </mxCell>
        <mxCell id="p8BGuA-l2qhjcE9aHadG-9" value="+ reserve(int size): void" style="text;strokeColor=none;fillColor=none;align=left;verticalAlign=top;spacingLeft=4;spacingRight=4;overflow=hidden;rotatable=0;points=[[0,0.5],[1,0.5]];portConstraint=eastwest;whiteSpace=wrap;html=1;" parent="p8BGuA-l2qhjcE9aHadG-1" vertex="1">
          <mxGeometry y="190" width="246" height="26" as="geometry" />
        </mxCell>
        <mxCell id="p8BGuA-l2qhjcE9aHadG-10" value="+ add(Object* data): bool" style="text;strokeColor=none;fillColor=none;align=left;verticalAlign=top;spacingLeft=4;spacingRight=4;overflow=hidden;rotatable=0;points=[[0,0.5],[1,0.5]];portConstraint=eastwest;whiteSpace=wrap;html=1;" parent="p8BGuA-l2qhjcE9aHadG-1" vertex="1">
          <mxGeometry y="216" width="246" height="26" as="geometry" />
        </mxCell>
        <mxCell id="p8BGuA-l2qhjcE9aHadG-11" value="+ del(): bool" style="text;strokeColor=none;fillColor=none;align=left;verticalAlign=top;spacingLeft=4;spacingRight=4;overflow=hidden;rotatable=0;points=[[0,0.5],[1,0.5]];portConstraint=eastwest;whiteSpace=wrap;html=1;" parent="p8BGuA-l2qhjcE9aHadG-1" vertex="1">
          <mxGeometry y="242" width="246" height="26" as="geometry" />
        </mxCell>
        <mxCell id="p8BGuA-l2qhjcE9aHadG-12" value="+ print(bool nameOnly): void" style="text;strokeColor=none;fillColor=none;align=left;verticalAlign=top;spacingLeft=4;spacingRight=4;overflow=hidden;rotatable=0;points=[[0,0.5],[1,0.5]];portConstraint=eastwest;whiteSpace=wrap;html=1;" parent="p8BGuA-l2qhjcE9aHadG-1" vertex="1">
          <mxGeometry y="268" width="246" height="26" as="geometry" />
        </mxCell>
        <mxCell id="p8BGuA-l2qhjcE9aHadG-20" style="edgeStyle=orthogonalEdgeStyle;rounded=0;orthogonalLoop=1;jettySize=auto;html=1;entryX=0;entryY=0.5;entryDx=0;entryDy=0;endArrow=block;endFill=0;exitX=0.5;exitY=0;exitDx=0;exitDy=0;" parent="1" source="p8BGuA-l2qhjcE9aHadG-13" target="p8BGuA-l2qhjcE9aHadG-2" edge="1">
          <mxGeometry relative="1" as="geometry">
            <mxPoint x="380" y="632" as="sourcePoint" />
            <mxPoint x="525" y="337" as="targetPoint" />
            <Array as="points">
              <mxPoint x="375" y="337" />
            </Array>
          </mxGeometry>
        </mxCell>
        <mxCell id="p8BGuA-l2qhjcE9aHadG-13" value="Object" style="swimlane;fontStyle=1;align=center;verticalAlign=top;childLayout=stackLayout;horizontal=1;startSize=26;horizontalStack=0;resizeParent=1;resizeParentMax=0;resizeLast=0;collapsible=1;marginBottom=0;whiteSpace=wrap;html=1;" parent="1" vertex="1">
          <mxGeometry x="250" y="632" width="250" height="164" as="geometry" />
        </mxCell>
        <mxCell id="p8BGuA-l2qhjcE9aHadG-14" value="+ ~Object(): virtual" style="text;strokeColor=none;fillColor=none;align=left;verticalAlign=top;spacingLeft=4;spacingRight=4;overflow=hidden;rotatable=0;points=[[0,0.5],[1,0.5]];portConstraint=eastwest;whiteSpace=wrap;html=1;" parent="p8BGuA-l2qhjcE9aHadG-13" vertex="1">
          <mxGeometry y="26" width="250" height="26" as="geometry" />
        </mxCell>
        <mxCell id="p8BGuA-l2qhjcE9aHadG-15" value="" style="line;strokeWidth=1;fillColor=none;align=left;verticalAlign=middle;spacingTop=-1;spacingLeft=3;spacingRight=3;rotatable=0;labelPosition=right;points=[];portConstraint=eastwest;strokeColor=inherit;" parent="p8BGuA-l2qhjcE9aHadG-13" vertex="1">
          <mxGeometry y="52" width="250" height="8" as="geometry" />
        </mxCell>
        <mxCell id="p8BGuA-l2qhjcE9aHadG-16" value="+ Object()" style="text;strokeColor=none;fillColor=none;align=left;verticalAlign=top;spacingLeft=4;spacingRight=4;overflow=hidden;rotatable=0;points=[[0,0.5],[1,0.5]];portConstraint=eastwest;whiteSpace=wrap;html=1;" parent="p8BGuA-l2qhjcE9aHadG-13" vertex="1">
          <mxGeometry y="60" width="250" height="26" as="geometry" />
        </mxCell>
        <mxCell id="p8BGuA-l2qhjcE9aHadG-17" value="+ getName(): virtual string" style="text;strokeColor=none;fillColor=none;align=left;verticalAlign=top;spacingLeft=4;spacingRight=4;overflow=hidden;rotatable=0;points=[[0,0.5],[1,0.5]];portConstraint=eastwest;whiteSpace=wrap;html=1;" parent="p8BGuA-l2qhjcE9aHadG-13" vertex="1">
          <mxGeometry y="86" width="250" height="26" as="geometry" />
        </mxCell>
        <mxCell id="p8BGuA-l2qhjcE9aHadG-18" value="+ setInfo(): virtual void" style="text;strokeColor=none;fillColor=none;align=left;verticalAlign=top;spacingLeft=4;spacingRight=4;overflow=hidden;rotatable=0;points=[[0,0.5],[1,0.5]];portConstraint=eastwest;whiteSpace=wrap;html=1;" parent="p8BGuA-l2qhjcE9aHadG-13" vertex="1">
          <mxGeometry y="112" width="250" height="26" as="geometry" />
        </mxCell>
        <mxCell id="p8BGuA-l2qhjcE9aHadG-19" value="+ getInfo(bool nameOnly=false): virtual void" style="text;strokeColor=none;fillColor=none;align=left;verticalAlign=top;spacingLeft=4;spacingRight=4;overflow=hidden;rotatable=0;points=[[0,0.5],[1,0.5]];portConstraint=eastwest;whiteSpace=wrap;html=1;" parent="p8BGuA-l2qhjcE9aHadG-13" vertex="1">
          <mxGeometry y="138" width="250" height="26" as="geometry" />
        </mxCell>
        <mxCell id="JTjwCdxvkZYmmelE-zyZ-37" style="edgeStyle=orthogonalEdgeStyle;rounded=0;orthogonalLoop=1;jettySize=auto;html=1;exitX=0.5;exitY=0;exitDx=0;exitDy=0;endArrow=block;endFill=0;entryX=0.51;entryY=1.058;entryDx=0;entryDy=0;entryPerimeter=0;" edge="1" parent="1" source="JTjwCdxvkZYmmelE-zyZ-1" target="JTjwCdxvkZYmmelE-zyZ-36">
          <mxGeometry relative="1" as="geometry">
            <mxPoint x="1140" y="932" as="targetPoint" />
            <Array as="points">
              <mxPoint x="740" y="662" />
              <mxPoint x="940" y="662" />
              <mxPoint x="940" y="922" />
              <mxPoint x="1133" y="922" />
            </Array>
          </mxGeometry>
        </mxCell>
        <mxCell id="JTjwCdxvkZYmmelE-zyZ-1" value="Print" style="swimlane;fontStyle=1;align=center;verticalAlign=top;childLayout=stackLayout;horizontal=1;startSize=26;horizontalStack=0;resizeParent=1;resizeParentMax=0;resizeLast=0;collapsible=1;marginBottom=0;whiteSpace=wrap;html=1;" vertex="1" parent="1">
          <mxGeometry x="590" y="682" width="300" height="346" as="geometry" />
        </mxCell>
        <mxCell id="JTjwCdxvkZYmmelE-zyZ-2" value="# name: string" style="text;strokeColor=none;fillColor=none;align=left;verticalAlign=top;spacingLeft=4;spacingRight=4;overflow=hidden;rotatable=0;points=[[0,0.5],[1,0.5]];portConstraint=eastwest;whiteSpace=wrap;html=1;" vertex="1" parent="JTjwCdxvkZYmmelE-zyZ-1">
          <mxGeometry y="26" width="300" height="26" as="geometry" />
        </mxCell>
        <mxCell id="JTjwCdxvkZYmmelE-zyZ-5" value="# author: string" style="text;strokeColor=none;fillColor=none;align=left;verticalAlign=top;spacingLeft=4;spacingRight=4;overflow=hidden;rotatable=0;points=[[0,0.5],[1,0.5]];portConstraint=eastwest;whiteSpace=wrap;html=1;" vertex="1" parent="JTjwCdxvkZYmmelE-zyZ-1">
          <mxGeometry y="52" width="300" height="26" as="geometry" />
        </mxCell>
        <mxCell id="JTjwCdxvkZYmmelE-zyZ-3" value="" style="line;strokeWidth=1;fillColor=none;align=left;verticalAlign=middle;spacingTop=-1;spacingLeft=3;spacingRight=3;rotatable=0;labelPosition=right;points=[];portConstraint=eastwest;strokeColor=inherit;" vertex="1" parent="JTjwCdxvkZYmmelE-zyZ-1">
          <mxGeometry y="78" width="300" height="8" as="geometry" />
        </mxCell>
        <mxCell id="JTjwCdxvkZYmmelE-zyZ-4" value="+ Print()" style="text;strokeColor=none;fillColor=none;align=left;verticalAlign=top;spacingLeft=4;spacingRight=4;overflow=hidden;rotatable=0;points=[[0,0.5],[1,0.5]];portConstraint=eastwest;whiteSpace=wrap;html=1;" vertex="1" parent="JTjwCdxvkZYmmelE-zyZ-1">
          <mxGeometry y="86" width="300" height="26" as="geometry" />
        </mxCell>
        <mxCell id="JTjwCdxvkZYmmelE-zyZ-6" value="+ Print(string name, string author)" style="text;strokeColor=none;fillColor=none;align=left;verticalAlign=top;spacingLeft=4;spacingRight=4;overflow=hidden;rotatable=0;points=[[0,0.5],[1,0.5]];portConstraint=eastwest;whiteSpace=wrap;html=1;" vertex="1" parent="JTjwCdxvkZYmmelE-zyZ-1">
          <mxGeometry y="112" width="300" height="26" as="geometry" />
        </mxCell>
        <mxCell id="JTjwCdxvkZYmmelE-zyZ-7" value="+ Print(Print&amp;amp; P): Print&amp;amp;" style="text;strokeColor=none;fillColor=none;align=left;verticalAlign=top;spacingLeft=4;spacingRight=4;overflow=hidden;rotatable=0;points=[[0,0.5],[1,0.5]];portConstraint=eastwest;whiteSpace=wrap;html=1;" vertex="1" parent="JTjwCdxvkZYmmelE-zyZ-1">
          <mxGeometry y="138" width="300" height="26" as="geometry" />
        </mxCell>
        <mxCell id="JTjwCdxvkZYmmelE-zyZ-8" value="+ setName(string name): void" style="text;strokeColor=none;fillColor=none;align=left;verticalAlign=top;spacingLeft=4;spacingRight=4;overflow=hidden;rotatable=0;points=[[0,0.5],[1,0.5]];portConstraint=eastwest;whiteSpace=wrap;html=1;" vertex="1" parent="JTjwCdxvkZYmmelE-zyZ-1">
          <mxGeometry y="164" width="300" height="26" as="geometry" />
        </mxCell>
        <mxCell id="JTjwCdxvkZYmmelE-zyZ-9" value="+ setAuthor(string author): void" style="text;strokeColor=none;fillColor=none;align=left;verticalAlign=top;spacingLeft=4;spacingRight=4;overflow=hidden;rotatable=0;points=[[0,0.5],[1,0.5]];portConstraint=eastwest;whiteSpace=wrap;html=1;" vertex="1" parent="JTjwCdxvkZYmmelE-zyZ-1">
          <mxGeometry y="190" width="300" height="26" as="geometry" />
        </mxCell>
        <mxCell id="JTjwCdxvkZYmmelE-zyZ-10" value="+ getName(): string" style="text;strokeColor=none;fillColor=none;align=left;verticalAlign=top;spacingLeft=4;spacingRight=4;overflow=hidden;rotatable=0;points=[[0,0.5],[1,0.5]];portConstraint=eastwest;whiteSpace=wrap;html=1;" vertex="1" parent="JTjwCdxvkZYmmelE-zyZ-1">
          <mxGeometry y="216" width="300" height="26" as="geometry" />
        </mxCell>
        <mxCell id="JTjwCdxvkZYmmelE-zyZ-11" value="+ getAuthor(): string" style="text;strokeColor=none;fillColor=none;align=left;verticalAlign=top;spacingLeft=4;spacingRight=4;overflow=hidden;rotatable=0;points=[[0,0.5],[1,0.5]];portConstraint=eastwest;whiteSpace=wrap;html=1;" vertex="1" parent="JTjwCdxvkZYmmelE-zyZ-1">
          <mxGeometry y="242" width="300" height="26" as="geometry" />
        </mxCell>
        <mxCell id="JTjwCdxvkZYmmelE-zyZ-12" value="+ setInfo(): virtual void" style="text;strokeColor=none;fillColor=none;align=left;verticalAlign=top;spacingLeft=4;spacingRight=4;overflow=hidden;rotatable=0;points=[[0,0.5],[1,0.5]];portConstraint=eastwest;whiteSpace=wrap;html=1;" vertex="1" parent="JTjwCdxvkZYmmelE-zyZ-1">
          <mxGeometry y="268" width="300" height="26" as="geometry" />
        </mxCell>
        <mxCell id="JTjwCdxvkZYmmelE-zyZ-13" value="+ getInfo(bool nameOnly=false): virtual void" style="text;strokeColor=none;fillColor=none;align=left;verticalAlign=top;spacingLeft=4;spacingRight=4;overflow=hidden;rotatable=0;points=[[0,0.5],[1,0.5]];portConstraint=eastwest;whiteSpace=wrap;html=1;" vertex="1" parent="JTjwCdxvkZYmmelE-zyZ-1">
          <mxGeometry y="294" width="300" height="26" as="geometry" />
        </mxCell>
        <mxCell id="JTjwCdxvkZYmmelE-zyZ-14" value="+ operator=(Print&amp;amp; P): Print&amp;amp;" style="text;strokeColor=none;fillColor=none;align=left;verticalAlign=top;spacingLeft=4;spacingRight=4;overflow=hidden;rotatable=0;points=[[0,0.5],[1,0.5]];portConstraint=eastwest;whiteSpace=wrap;html=1;" vertex="1" parent="JTjwCdxvkZYmmelE-zyZ-1">
          <mxGeometry y="320" width="300" height="26" as="geometry" />
        </mxCell>
        <mxCell id="JTjwCdxvkZYmmelE-zyZ-15" value="Magazine" style="swimlane;fontStyle=1;align=center;verticalAlign=top;childLayout=stackLayout;horizontal=1;startSize=26;horizontalStack=0;resizeParent=1;resizeParentMax=0;resizeLast=0;collapsible=1;marginBottom=0;whiteSpace=wrap;html=1;" vertex="1" parent="1">
          <mxGeometry x="980" y="592" width="300" height="268" as="geometry" />
        </mxCell>
        <mxCell id="JTjwCdxvkZYmmelE-zyZ-16" value="# pages: int" style="text;strokeColor=none;fillColor=none;align=left;verticalAlign=top;spacingLeft=4;spacingRight=4;overflow=hidden;rotatable=0;points=[[0,0.5],[1,0.5]];portConstraint=eastwest;whiteSpace=wrap;html=1;" vertex="1" parent="JTjwCdxvkZYmmelE-zyZ-15">
          <mxGeometry y="26" width="300" height="26" as="geometry" />
        </mxCell>
        <mxCell id="JTjwCdxvkZYmmelE-zyZ-18" value="" style="line;strokeWidth=1;fillColor=none;align=left;verticalAlign=middle;spacingTop=-1;spacingLeft=3;spacingRight=3;rotatable=0;labelPosition=right;points=[];portConstraint=eastwest;strokeColor=inherit;" vertex="1" parent="JTjwCdxvkZYmmelE-zyZ-15">
          <mxGeometry y="52" width="300" height="8" as="geometry" />
        </mxCell>
        <mxCell id="JTjwCdxvkZYmmelE-zyZ-28" value="+ Magazine" style="text;strokeColor=none;fillColor=none;align=left;verticalAlign=top;spacingLeft=4;spacingRight=4;overflow=hidden;rotatable=0;points=[[0,0.5],[1,0.5]];portConstraint=eastwest;whiteSpace=wrap;html=1;" vertex="1" parent="JTjwCdxvkZYmmelE-zyZ-15">
          <mxGeometry y="60" width="300" height="26" as="geometry" />
        </mxCell>
        <mxCell id="JTjwCdxvkZYmmelE-zyZ-29" value="+ Magazine(string name, string author, int pages)" style="text;strokeColor=none;fillColor=none;align=left;verticalAlign=top;spacingLeft=4;spacingRight=4;overflow=hidden;rotatable=0;points=[[0,0.5],[1,0.5]];portConstraint=eastwest;whiteSpace=wrap;html=1;" vertex="1" parent="JTjwCdxvkZYmmelE-zyZ-15">
          <mxGeometry y="86" width="300" height="26" as="geometry" />
        </mxCell>
        <mxCell id="JTjwCdxvkZYmmelE-zyZ-30" value="+ ~Magazine: virtual" style="text;strokeColor=none;fillColor=none;align=left;verticalAlign=top;spacingLeft=4;spacingRight=4;overflow=hidden;rotatable=0;points=[[0,0.5],[1,0.5]];portConstraint=eastwest;whiteSpace=wrap;html=1;" vertex="1" parent="JTjwCdxvkZYmmelE-zyZ-15">
          <mxGeometry y="112" width="300" height="26" as="geometry" />
        </mxCell>
        <mxCell id="JTjwCdxvkZYmmelE-zyZ-31" value="+ setPages(int pages): void" style="text;strokeColor=none;fillColor=none;align=left;verticalAlign=top;spacingLeft=4;spacingRight=4;overflow=hidden;rotatable=0;points=[[0,0.5],[1,0.5]];portConstraint=eastwest;whiteSpace=wrap;html=1;" vertex="1" parent="JTjwCdxvkZYmmelE-zyZ-15">
          <mxGeometry y="138" width="300" height="26" as="geometry" />
        </mxCell>
        <mxCell id="JTjwCdxvkZYmmelE-zyZ-32" value="+ getPages(): int" style="text;strokeColor=none;fillColor=none;align=left;verticalAlign=top;spacingLeft=4;spacingRight=4;overflow=hidden;rotatable=0;points=[[0,0.5],[1,0.5]];portConstraint=eastwest;whiteSpace=wrap;html=1;" vertex="1" parent="JTjwCdxvkZYmmelE-zyZ-15">
          <mxGeometry y="164" width="300" height="26" as="geometry" />
        </mxCell>
        <mxCell id="JTjwCdxvkZYmmelE-zyZ-35" value="+ getInfo(bool nameOnly=false): virtual void" style="text;strokeColor=none;fillColor=none;align=left;verticalAlign=top;spacingLeft=4;spacingRight=4;overflow=hidden;rotatable=0;points=[[0,0.5],[1,0.5]];portConstraint=eastwest;whiteSpace=wrap;html=1;" vertex="1" parent="JTjwCdxvkZYmmelE-zyZ-15">
          <mxGeometry y="190" width="300" height="26" as="geometry" />
        </mxCell>
        <mxCell id="JTjwCdxvkZYmmelE-zyZ-34" value="+ setInfo(): virtual void" style="text;strokeColor=none;fillColor=none;align=left;verticalAlign=top;spacingLeft=4;spacingRight=4;overflow=hidden;rotatable=0;points=[[0,0.5],[1,0.5]];portConstraint=eastwest;whiteSpace=wrap;html=1;" vertex="1" parent="JTjwCdxvkZYmmelE-zyZ-15">
          <mxGeometry y="216" width="300" height="26" as="geometry" />
        </mxCell>
        <mxCell id="JTjwCdxvkZYmmelE-zyZ-36" value="+ operator=(Magazine&amp;amp; M): Magazine&amp;amp;" style="text;strokeColor=none;fillColor=none;align=left;verticalAlign=top;spacingLeft=4;spacingRight=4;overflow=hidden;rotatable=0;points=[[0,0.5],[1,0.5]];portConstraint=eastwest;whiteSpace=wrap;html=1;" vertex="1" parent="JTjwCdxvkZYmmelE-zyZ-15">
          <mxGeometry y="242" width="300" height="26" as="geometry" />
        </mxCell>
        <mxCell id="JTjwCdxvkZYmmelE-zyZ-40" style="edgeStyle=orthogonalEdgeStyle;rounded=0;orthogonalLoop=1;jettySize=auto;html=1;entryX=0.5;entryY=0;entryDx=0;entryDy=0;dashed=1;endArrow=classicThin;endFill=1;" edge="1" parent="1" source="p8BGuA-l2qhjcE9aHadG-2" target="JTjwCdxvkZYmmelE-zyZ-15">
          <mxGeometry relative="1" as="geometry" />
        </mxCell>
        <mxCell id="JTjwCdxvkZYmmelE-zyZ-41" value="Event" style="swimlane;fontStyle=1;align=center;verticalAlign=top;childLayout=stackLayout;horizontal=1;startSize=26;horizontalStack=0;resizeParent=1;resizeParentMax=0;resizeLast=0;collapsible=1;marginBottom=0;whiteSpace=wrap;html=1;" vertex="1" parent="1">
          <mxGeometry x="771" y="70" width="160" height="154" as="geometry" />
        </mxCell>
        <mxCell id="JTjwCdxvkZYmmelE-zyZ-42" value="+ isEmpty: bool" style="text;strokeColor=none;fillColor=none;align=left;verticalAlign=top;spacingLeft=4;spacingRight=4;overflow=hidden;rotatable=0;points=[[0,0.5],[1,0.5]];portConstraint=eastwest;whiteSpace=wrap;html=1;" vertex="1" parent="JTjwCdxvkZYmmelE-zyZ-41">
          <mxGeometry y="26" width="160" height="26" as="geometry" />
        </mxCell>
        <mxCell id="JTjwCdxvkZYmmelE-zyZ-45" value="+ struct{&lt;br&gt;&lt;span style=&quot;white-space: pre;&quot;&gt;&#x9;&lt;/span&gt;command: char;&lt;br&gt;&lt;span style=&quot;white-space: pre;&quot;&gt;&#x9;&lt;/span&gt;arg: int;&lt;br&gt;}" style="text;strokeColor=none;fillColor=none;align=left;verticalAlign=top;spacingLeft=4;spacingRight=4;overflow=hidden;rotatable=0;points=[[0,0.5],[1,0.5]];portConstraint=eastwest;whiteSpace=wrap;html=1;" vertex="1" parent="JTjwCdxvkZYmmelE-zyZ-41">
          <mxGeometry y="52" width="160" height="68" as="geometry" />
        </mxCell>
        <mxCell id="JTjwCdxvkZYmmelE-zyZ-43" value="" style="line;strokeWidth=1;fillColor=none;align=left;verticalAlign=middle;spacingTop=-1;spacingLeft=3;spacingRight=3;rotatable=0;labelPosition=right;points=[];portConstraint=eastwest;strokeColor=inherit;" vertex="1" parent="JTjwCdxvkZYmmelE-zyZ-41">
          <mxGeometry y="120" width="160" height="8" as="geometry" />
        </mxCell>
        <mxCell id="JTjwCdxvkZYmmelE-zyZ-44" value="+ clear(): void" style="text;strokeColor=none;fillColor=none;align=left;verticalAlign=top;spacingLeft=4;spacingRight=4;overflow=hidden;rotatable=0;points=[[0,0.5],[1,0.5]];portConstraint=eastwest;whiteSpace=wrap;html=1;" vertex="1" parent="JTjwCdxvkZYmmelE-zyZ-41">
          <mxGeometry y="128" width="160" height="26" as="geometry" />
        </mxCell>
        <mxCell id="JTjwCdxvkZYmmelE-zyZ-46" value="Dialog" style="swimlane;fontStyle=1;align=center;verticalAlign=top;childLayout=stackLayout;horizontal=1;startSize=26;horizontalStack=0;resizeParent=1;resizeParentMax=0;resizeLast=0;collapsible=1;marginBottom=0;whiteSpace=wrap;html=1;" vertex="1" parent="1">
          <mxGeometry x="1070" y="52" width="160" height="190" as="geometry" />
        </mxCell>
        <mxCell id="JTjwCdxvkZYmmelE-zyZ-47" value="# is_running: bool" style="text;strokeColor=none;fillColor=none;align=left;verticalAlign=top;spacingLeft=4;spacingRight=4;overflow=hidden;rotatable=0;points=[[0,0.5],[1,0.5]];portConstraint=eastwest;whiteSpace=wrap;html=1;" vertex="1" parent="JTjwCdxvkZYmmelE-zyZ-46">
          <mxGeometry y="26" width="160" height="26" as="geometry" />
        </mxCell>
        <mxCell id="JTjwCdxvkZYmmelE-zyZ-49" value="" style="line;strokeWidth=1;fillColor=none;align=left;verticalAlign=middle;spacingTop=-1;spacingLeft=3;spacingRight=3;rotatable=0;labelPosition=right;points=[];portConstraint=eastwest;strokeColor=inherit;" vertex="1" parent="JTjwCdxvkZYmmelE-zyZ-46">
          <mxGeometry y="52" width="160" height="8" as="geometry" />
        </mxCell>
        <mxCell id="JTjwCdxvkZYmmelE-zyZ-50" value="+ Dialog()" style="text;strokeColor=none;fillColor=none;align=left;verticalAlign=top;spacingLeft=4;spacingRight=4;overflow=hidden;rotatable=0;points=[[0,0.5],[1,0.5]];portConstraint=eastwest;whiteSpace=wrap;html=1;" vertex="1" parent="JTjwCdxvkZYmmelE-zyZ-46">
          <mxGeometry y="60" width="160" height="26" as="geometry" />
        </mxCell>
        <mxCell id="JTjwCdxvkZYmmelE-zyZ-53" value="+ ~Dialog()" style="text;strokeColor=none;fillColor=none;align=left;verticalAlign=top;spacingLeft=4;spacingRight=4;overflow=hidden;rotatable=0;points=[[0,0.5],[1,0.5]];portConstraint=eastwest;whiteSpace=wrap;html=1;" vertex="1" parent="JTjwCdxvkZYmmelE-zyZ-46">
          <mxGeometry y="86" width="160" height="26" as="geometry" />
        </mxCell>
        <mxCell id="JTjwCdxvkZYmmelE-zyZ-54" value="+ Exectue(): void" style="text;strokeColor=none;fillColor=none;align=left;verticalAlign=top;spacingLeft=4;spacingRight=4;overflow=hidden;rotatable=0;points=[[0,0.5],[1,0.5]];portConstraint=eastwest;whiteSpace=wrap;html=1;" vertex="1" parent="JTjwCdxvkZYmmelE-zyZ-46">
          <mxGeometry y="112" width="160" height="26" as="geometry" />
        </mxCell>
        <mxCell id="JTjwCdxvkZYmmelE-zyZ-55" value="+ getEvent(Event&amp;amp; e): void" style="text;strokeColor=none;fillColor=none;align=left;verticalAlign=top;spacingLeft=4;spacingRight=4;overflow=hidden;rotatable=0;points=[[0,0.5],[1,0.5]];portConstraint=eastwest;whiteSpace=wrap;html=1;" vertex="1" parent="JTjwCdxvkZYmmelE-zyZ-46">
          <mxGeometry y="138" width="160" height="26" as="geometry" />
        </mxCell>
        <mxCell id="JTjwCdxvkZYmmelE-zyZ-56" value="+ response(Event&amp;amp; e): void" style="text;strokeColor=none;fillColor=none;align=left;verticalAlign=top;spacingLeft=4;spacingRight=4;overflow=hidden;rotatable=0;points=[[0,0.5],[1,0.5]];portConstraint=eastwest;whiteSpace=wrap;html=1;" vertex="1" parent="JTjwCdxvkZYmmelE-zyZ-46">
          <mxGeometry y="164" width="160" height="26" as="geometry" />
        </mxCell>
        <mxCell id="JTjwCdxvkZYmmelE-zyZ-57" style="edgeStyle=orthogonalEdgeStyle;rounded=0;orthogonalLoop=1;jettySize=auto;html=1;entryX=0.525;entryY=1.015;entryDx=0;entryDy=0;entryPerimeter=0;endArrow=block;endFill=0;" edge="1" parent="1" source="p8BGuA-l2qhjcE9aHadG-1" target="JTjwCdxvkZYmmelE-zyZ-56">
          <mxGeometry relative="1" as="geometry" />
        </mxCell>
        <mxCell id="JTjwCdxvkZYmmelE-zyZ-59" style="edgeStyle=orthogonalEdgeStyle;rounded=0;orthogonalLoop=1;jettySize=auto;html=1;entryX=0.5;entryY=0;entryDx=0;entryDy=0;dashed=1;endArrow=classicThin;endFill=1;" edge="1" parent="1" source="JTjwCdxvkZYmmelE-zyZ-55" target="JTjwCdxvkZYmmelE-zyZ-41">
          <mxGeometry relative="1" as="geometry" />
        </mxCell>
        <mxCell id="JTjwCdxvkZYmmelE-zyZ-60" style="edgeStyle=orthogonalEdgeStyle;rounded=0;orthogonalLoop=1;jettySize=auto;html=1;endArrow=block;endFill=0;exitX=0.5;exitY=0;exitDx=0;exitDy=0;entryX=0.485;entryY=1.123;entryDx=0;entryDy=0;entryPerimeter=0;" edge="1" parent="1" source="p8BGuA-l2qhjcE9aHadG-13" target="JTjwCdxvkZYmmelE-zyZ-14">
          <mxGeometry relative="1" as="geometry">
            <mxPoint x="1100" y="862" as="targetPoint" />
            <Array as="points">
              <mxPoint x="375" y="612" />
              <mxPoint x="540" y="612" />
              <mxPoint x="540" y="1112" />
              <mxPoint x="736" y="1112" />
              <mxPoint x="736" y="1062" />
            </Array>
          </mxGeometry>
        </mxCell>
      </root>
    </mxGraphModel>
  </diagram>
</mxfile>
